<svg xmlns="http://www.w3.org/2000/svg" width="256" height="256" viewBox="0 0 256 256"><path fill="#f8c302" fill-rule="evenodd" stroke="#f8c302" stroke-linejoin="round" stroke-width=".25" d="m134.75 104.35-53.22-2.85c2.19 2.27 6.65 2.73 9.66 3.79 8.75 3.08 17.57 5.94 26.36 8.97 2.5.86 9.91 4.3 11.9 4 27.1 8.75 54.19 17.49 81.29 26.24-41.5 36.78-83.01 73.56-124.51 110.33 15.35-28.05 30.69-56.11 46.04-84.17l46.02.84c-13.17-4.28-26.34-8.56-39.51-12.83-29.98-9.71-59.96-19.41-89.95-29.12.42-2.08 7.08-6.89 8.93-8.62 8.49-7.87 17.23-15.43 25.84-23.17 25.22-22.64 50.5-45.27 75.62-68.04C166.63 23 174 16.28 181.52 9.69c3.02-2.64 6.22-6.95 9.98-8.44-18.92 34.37-37.84 68.73-56.75 103.1Z"/><path fill="#dca913" fill-rule="evenodd" stroke="#dca913" stroke-linejoin="round" stroke-width=".25" d="M134.75 104.35c-2.27 4.38-4.54 8.77-6.81 13.15.5.25 1.01.51 1.51.76-1.99.3-9.4-3.14-11.9-4-8.79-3.03-17.61-5.89-26.36-8.97-3.01-1.06-7.47-1.52-9.66-3.79zm4.03 54.32c13.17 4.27 26.34 8.55 39.51 12.83l-46.02-.84c2.17-4 4.34-8 6.51-11.99Z"/></svg>